# xmcd
#
# Track frame offsets:
#	150
#	21363
#	39205
#	58470
#
# Disc length: 1061 seconds
#
# Revision: 1
# Processed by: cddbd v1.5PL3 Copyright (c) Steve Scherf et al.
# Submitted via: CDex 1.50Beta5
#
DISCID=30042304
DTITLE=U.F.O - 童神
DYEAR=2002
DGENRE=Pop
TTITLE0=童神
TTITLE1=パラダイスひとりぼっち
TTITLE2=曼珠沙華
TTITLE3=まつり
EXTD=
EXTT0=
EXTT1=
EXTT2=
EXTT3=
PLAYORDER=
